<svg width="36" height="36" viewBox="0 0 36 36" fill="none" xmlns="http://www.w3.org/2000/svg">
<circle cx="18" cy="18" r="18" fill="url(#paint0_linear_108_962)"/>
<circle cx="28.9998" cy="29" r="7" fill="#67B1FC"/>
<g clip-path="url(#clip0_108_962)">
<path d="M24.7623 28.468C24.7623 28.2067 24.8261 28.0309 24.9537 27.9407C25.0812 27.8504 25.2819 27.8053 25.5557 27.8053C25.6801 27.8053 25.8761 27.8069 26.1437 27.81C26.4112 27.8131 26.6959 27.8147 26.9977 27.8147C27.2994 27.8147 27.5934 27.8162 27.8797 27.8193C28.1659 27.8224 28.393 27.824 28.561 27.824C28.7974 27.8302 28.9841 27.81 29.121 27.7633C29.2579 27.7167 29.3263 27.6093 29.3263 27.4413C29.3263 27.3169 29.331 27.1691 29.3403 26.998C29.3497 26.8269 29.3543 26.6791 29.3543 26.5547C29.3605 26.3369 29.4228 26.1984 29.541 26.1393C29.6592 26.0802 29.8085 26.1253 29.989 26.2747C30.1757 26.424 30.3934 26.6013 30.6423 26.8067C30.8912 27.012 31.1494 27.222 31.417 27.4367C31.6845 27.6513 31.9459 27.8629 32.201 28.0713C32.4561 28.2798 32.6832 28.4618 32.8823 28.6173C33.0628 28.7667 33.1545 28.9082 33.1577 29.042C33.1608 29.1758 33.0752 29.3142 32.901 29.4573C32.7205 29.6067 32.5074 29.7778 32.2617 29.9707C32.0159 30.1635 31.7608 30.3627 31.4963 30.568C31.2319 30.7733 30.9721 30.9771 30.717 31.1793C30.4619 31.3815 30.2348 31.5604 30.0357 31.716C29.8179 31.8902 29.639 31.9555 29.499 31.912C29.359 31.8684 29.2921 31.7347 29.2983 31.5107V31.2867V31.016C29.2983 30.9227 29.2968 30.8309 29.2937 30.7407C29.2905 30.6504 29.289 30.568 29.289 30.4933C29.289 30.3378 29.2423 30.2398 29.149 30.1993C29.0557 30.1589 28.9281 30.1387 28.7663 30.1387C28.5859 30.1387 28.3494 30.1371 28.057 30.134C27.7645 30.1309 27.4597 30.1293 27.1423 30.1293C26.825 30.1293 26.517 30.1278 26.2183 30.1247C25.9197 30.1215 25.677 30.12 25.4903 30.12C25.4094 30.12 25.3254 30.1122 25.2383 30.0967C25.1512 30.0811 25.0719 30.0515 25.0003 30.008C24.9288 29.9644 24.8712 29.9007 24.8277 29.8167C24.7841 29.7327 24.7623 29.6191 24.7623 29.476C24.7623 29.308 24.7608 29.1462 24.7577 28.9907C24.7545 28.8351 24.7561 28.6609 24.7623 28.468Z" fill="white"/>
</g>
<mask id="mask0_108_962" style="mask-type:luminance" maskUnits="userSpaceOnUse" x="8" y="8" width="21" height="20">
<path d="M28.0002 8H8.00024V28H28.0002V8Z" fill="white"/>
</mask>
<g mask="url(#mask0_108_962)">
<path d="M26.3865 18.3842L26.232 18.5387L18.899 11.2057L19.0535 11.0512C20.026 10.0788 21.3448 9.5325 22.72 9.5325C24.0952 9.5325 25.4141 10.0788 26.3865 11.0512C27.3589 12.0236 27.9052 13.3425 27.9052 14.7177C27.9052 16.0929 27.3589 17.4118 26.3865 18.3842Z" fill="white"/>
<path d="M20.1779 18.6019L23.1761 21.5982L25.3335 19.4408L16.9465 11.0519C16.465 10.5704 15.8933 10.1884 15.2642 9.92781C14.6351 9.6672 13.9608 9.53305 13.2798 9.53305C12.5988 9.53305 11.9245 9.6672 11.2954 9.92781C10.6663 10.1884 10.0946 10.5704 9.61313 11.0519C9.13159 11.5334 8.7496 12.1051 8.48899 12.7342C8.22838 13.3633 8.09424 14.0376 8.09424 14.7186C8.09424 15.3996 8.22838 16.0739 8.48899 16.703C8.7496 17.3322 9.13159 17.9038 9.61313 18.3853L17.4779 26.2501C17.6168 26.3886 17.805 26.4664 18.0011 26.4664C18.1972 26.4664 18.3854 26.3886 18.5242 26.2501L20.3761 24.3982L17.365 21.389C17.2631 21.2893 17.1984 21.1577 17.1819 21.0162C17.1654 20.8746 17.198 20.7316 17.2742 20.6112C17.3239 20.535 17.39 20.4708 17.4677 20.4233C17.5453 20.3759 17.6326 20.3464 17.7231 20.337C17.8136 20.3276 17.905 20.3385 17.9908 20.369C18.0765 20.3994 18.1544 20.4487 18.2187 20.5131L21.2335 23.5371L22.3131 22.4575L19.2909 19.4371C19.2324 19.3783 19.1865 19.3082 19.1559 19.231C19.1253 19.1539 19.1107 19.0714 19.113 18.9885C19.1152 18.9055 19.1343 18.8239 19.169 18.7486C19.2037 18.6732 19.2534 18.6057 19.315 18.5501C19.4386 18.4478 19.5965 18.3963 19.7567 18.4059C19.9169 18.4155 20.0674 18.4856 20.1779 18.6019Z" fill="white"/>
</g>
<defs>
<linearGradient id="paint0_linear_108_962" x1="8.33333" y1="5.33333" x2="24" y2="32.3333" gradientUnits="userSpaceOnUse">
<stop stop-color="#2D91F6"/>
<stop offset="1" stop-color="#1E90F9"/>
</linearGradient>
<clipPath id="clip0_108_962">
<rect width="9.33333" height="9.33333" fill="white" transform="translate(24.333 24.3333)"/>
</clipPath>
</defs>
</svg>
