<svg width="36" height="36" viewBox="0 0 36 36" fill="none" xmlns="http://www.w3.org/2000/svg">
<circle cx="18" cy="18" r="18" fill="#15CE7E"/>
<g clip-path="url(#clip0_108_963)">
<path d="M16.7036 20.6164C16.7036 23.1878 19.2391 25.2738 22.35 25.2738C23.1053 25.2738 23.8425 25.1479 24.4899 24.9321C24.6697 25.022 25.9644 26.1369 26.2521 25.9391C26.4499 25.7773 25.7846 24.5725 25.7306 24.3567C27.0973 23.5115 27.9964 22.1449 27.9964 20.6164C27.9964 18.045 25.4609 15.959 22.35 15.959C19.2391 15.959 16.7036 18.045 16.7036 20.6164ZM23.5368 18.98C23.5368 18.5305 23.8965 18.1708 24.346 18.1708C24.7956 18.1708 25.1552 18.5305 25.1552 18.98C25.1552 19.4296 24.7956 19.7892 24.346 19.7892C23.8965 19.7892 23.5368 19.4296 23.5368 18.98ZM19.5628 18.98C19.5628 18.5305 19.9224 18.1708 20.372 18.1708C20.8215 18.1708 21.1812 18.5305 21.1812 18.98C21.1812 19.4296 20.8215 19.7892 20.372 19.7892C19.9224 19.7892 19.5628 19.4296 19.5628 18.98Z" fill="white"/>
<path d="M16.2001 20.5804C16.2001 17.7752 18.9693 15.5095 22.368 15.5095C22.5478 15.5095 22.7276 15.5095 22.8895 15.5275C22.5118 12.4345 19.329 10.0249 15.4628 10.0249C11.3449 10.0249 8.00024 12.7762 8.00024 16.1748C8.00024 18.1888 9.18707 19.987 11.0033 21.1019C10.9313 21.3716 10.0682 22.9721 10.3199 23.1878C10.6976 23.4396 12.4059 21.9651 12.6396 21.8572C13.5028 22.1449 14.4558 22.3067 15.4628 22.3067C15.8225 22.3067 16.1821 22.2887 16.5418 22.2348C16.326 21.7313 16.2001 21.1738 16.2001 20.5804ZM18.0702 12.9021C18.6637 12.9021 19.1492 13.3876 19.1492 13.981C19.1672 14.5744 18.6816 15.0599 18.0702 15.0599C17.4768 15.0599 16.9913 14.5744 16.9913 13.981C16.9913 13.3876 17.4768 12.9021 18.0702 12.9021ZM12.8374 15.0599C12.244 15.0599 11.7585 14.5744 11.7585 13.981C11.7585 13.3876 12.244 12.9021 12.8374 12.9021C13.4308 12.9021 13.9164 13.3876 13.9164 13.981C13.9164 14.5744 13.4308 15.0599 12.8374 15.0599Z" fill="white"/>
</g>
<circle cx="28.9998" cy="29" r="7" fill="#5EE6AB"/>
<g clip-path="url(#clip1_108_963)">
<path d="M24.7623 28.468C24.7623 28.2067 24.8261 28.0309 24.9537 27.9407C25.0812 27.8504 25.2819 27.8053 25.5557 27.8053C25.6801 27.8053 25.8761 27.8069 26.1437 27.81C26.4112 27.8131 26.6959 27.8147 26.9977 27.8147C27.2994 27.8147 27.5934 27.8162 27.8797 27.8193C28.1659 27.8224 28.393 27.824 28.561 27.824C28.7974 27.8302 28.9841 27.81 29.121 27.7633C29.2579 27.7167 29.3263 27.6093 29.3263 27.4413C29.3263 27.3169 29.331 27.1691 29.3403 26.998C29.3497 26.8269 29.3543 26.6791 29.3543 26.5547C29.3605 26.3369 29.4228 26.1984 29.541 26.1393C29.6592 26.0802 29.8085 26.1253 29.989 26.2747C30.1757 26.424 30.3934 26.6013 30.6423 26.8067C30.8912 27.012 31.1494 27.222 31.417 27.4367C31.6845 27.6513 31.9459 27.8629 32.201 28.0713C32.4561 28.2798 32.6832 28.4618 32.8823 28.6173C33.0628 28.7667 33.1545 28.9082 33.1577 29.042C33.1608 29.1758 33.0752 29.3142 32.901 29.4573C32.7205 29.6067 32.5074 29.7778 32.2617 29.9707C32.0159 30.1635 31.7608 30.3627 31.4963 30.568C31.2319 30.7733 30.9721 30.9771 30.717 31.1793C30.4619 31.3815 30.2348 31.5604 30.0357 31.716C29.8179 31.8902 29.639 31.9555 29.499 31.912C29.359 31.8684 29.2921 31.7347 29.2983 31.5107V31.2867V31.016C29.2983 30.9227 29.2968 30.8309 29.2937 30.7407C29.2905 30.6504 29.289 30.568 29.289 30.4933C29.289 30.3378 29.2423 30.2398 29.149 30.1993C29.0557 30.1589 28.9281 30.1387 28.7663 30.1387C28.5859 30.1387 28.3494 30.1371 28.057 30.134C27.7645 30.1309 27.4597 30.1293 27.1423 30.1293C26.825 30.1293 26.517 30.1278 26.2183 30.1247C25.9197 30.1215 25.677 30.12 25.4903 30.12C25.4094 30.12 25.3254 30.1122 25.2383 30.0967C25.1512 30.0811 25.0719 30.0515 25.0003 30.008C24.9288 29.9644 24.8712 29.9007 24.8277 29.8167C24.7841 29.7327 24.7623 29.6191 24.7623 29.476C24.7623 29.308 24.7608 29.1462 24.7577 28.9907C24.7545 28.8351 24.7561 28.6609 24.7623 28.468Z" fill="white"/>
</g>
<defs>
<clipPath id="clip0_108_963">
<rect width="20" height="20" fill="white" transform="translate(8.00024 8)"/>
</clipPath>
<clipPath id="clip1_108_963">
<rect width="9.33333" height="9.33333" fill="white" transform="translate(24.333 24.3333)"/>
</clipPath>
</defs>
</svg>
