<svg width="36" height="36" viewBox="0 0 36 36" fill="none" xmlns="http://www.w3.org/2000/svg">
<circle cx="18" cy="18" r="18" fill="#FB852D"/>
<mask id="mask0_108_964" style="mask-type:luminance" maskUnits="userSpaceOnUse" x="8" y="8" width="20" height="20">
<path d="M28 8H8V28H28V8Z" fill="white"/>
</mask>
<g mask="url(#mask0_108_964)">
<path d="M22.6369 20.6668C21.4702 19.8335 20.1943 19.5001 19.4165 19.6112C19.0539 19.7122 18.7344 19.9296 18.5073 20.2298C18.4499 20.309 18.3677 20.3667 18.2738 20.3939C18.1798 20.4211 18.0795 20.4161 17.9887 20.3798C17.9628 20.3686 17.939 20.3529 17.9184 20.3335C17.457 19.7872 17.0303 19.2126 16.6406 18.6131C16.2296 18.0678 15.8729 17.4835 15.5758 16.8687C15.5098 16.7384 15.4755 16.5944 15.4758 16.4483L15.511 16.4131C15.6263 16.3021 15.7732 16.2297 15.9313 16.2057C16.1722 16.1592 16.3961 16.0486 16.5796 15.8857C16.763 15.7228 16.8992 15.5135 16.9739 15.2798C17.4184 14.6131 17.5295 13.4482 17.3073 12.3927C16.9739 10.2279 15.8091 8.8409 14.5295 8.8409H14.3036C13.5807 8.83159 12.8695 9.02397 12.2498 9.39645C11.9596 9.57898 11.6976 9.80292 11.4721 10.0612C10.9846 10.6107 10.6348 11.2683 10.4517 11.9797C9.81096 14.4464 10.6165 17.9353 12.5832 21.0538C15.5813 25.8834 20.0776 28.326 22.9647 26.6094C23.0904 26.5425 23.2079 26.4611 23.3147 26.3668C23.6627 26.0624 23.9449 25.6902 24.1438 25.2729C24.3428 24.8556 24.4544 24.4021 24.4717 23.9401C24.4891 23.4781 24.4118 23.0174 24.2447 22.5864C24.0776 22.1553 23.8241 21.763 23.4998 21.4335C23.2298 21.1557 22.9375 20.9005 22.6258 20.6705L22.6369 20.6668Z" fill="white"/>
<path d="M19.9722 15.0038C19.9921 14.9512 20.0227 14.9032 20.0621 14.863C20.1015 14.8228 20.1488 14.7913 20.2011 14.7704C20.2533 14.7495 20.3094 14.7397 20.3656 14.7416C20.4219 14.7435 20.4771 14.7572 20.5278 14.7817C20.7856 14.8288 21.0273 14.94 21.2308 15.105C21.4344 15.27 21.5931 15.4836 21.6926 15.726C21.894 16.1603 21.9334 16.6523 21.8037 17.1131C21.6926 17.3353 21.4703 17.5575 21.137 17.4464C20.9148 17.3353 20.6945 17.1131 20.8037 16.7816C20.9148 16.5594 20.8037 16.3372 20.8037 16.2261C20.6945 16.0038 20.4722 15.8928 20.3611 15.7816C19.9722 15.7261 19.8611 15.3372 19.9722 15.0038Z" fill="white"/>
<path d="M20.9149 13.3946C20.9348 13.3419 20.9654 13.294 21.0048 13.2538C21.0442 13.2136 21.0915 13.182 21.1438 13.1611C21.196 13.1402 21.2521 13.1304 21.3083 13.1323C21.3646 13.1343 21.4198 13.1479 21.4705 13.1723C21.8816 13.3064 22.2619 13.5214 22.5887 13.8046C22.9156 14.0878 23.1825 14.4336 23.3739 14.8214C23.5652 15.2093 23.6771 15.6315 23.7029 16.0632C23.7287 16.4949 23.668 16.9274 23.5242 17.3353C23.4131 17.5575 23.1909 17.7798 22.8594 17.6687C22.6372 17.5576 22.4149 17.3354 22.526 17.0039C22.8594 15.8372 22.3038 14.5613 21.1371 14.2261C20.9149 14.115 20.8038 13.7261 20.9149 13.3928V13.3946Z" fill="white"/>
<path d="M21.3593 11.3409C21.3791 11.2882 21.4097 11.2403 21.4491 11.2001C21.4885 11.1599 21.5358 11.1283 21.5881 11.1074C21.6403 11.0865 21.6964 11.0767 21.7526 11.0787C21.8089 11.0806 21.8641 11.0942 21.9148 11.1186C23.3077 11.5922 24.4623 12.5881 25.1352 13.8964C25.8 15.2835 25.9667 16.7835 25.4667 18.1705C25.3574 18.3927 25.1352 18.6149 24.8018 18.5038C24.5796 18.3927 24.3574 18.1705 24.4685 17.8372C24.8018 16.6724 24.8018 15.3946 24.2463 14.3964C23.6907 13.3409 22.7481 12.5631 21.5815 12.0649C21.3593 12.0094 21.2482 11.676 21.3593 11.3427V11.3409Z" fill="white"/>
</g>
<circle cx="29" cy="29" r="7" fill="#FCA359"/>
<g clip-path="url(#clip0_108_964)">
<rect width="9.33333" height="9.33333" transform="translate(24.3335 24.3333)" fill="#FCA359"/>
<path d="M24.7628 28.468C24.7628 28.2067 24.8266 28.0309 24.9541 27.9407C25.0817 27.8505 25.2824 27.8053 25.5561 27.8053C25.6806 27.8053 25.8766 27.8069 26.1441 27.81C26.4117 27.8131 26.6964 27.8147 26.9981 27.8147C27.2999 27.8147 27.5939 27.8162 27.8801 27.8193C28.1664 27.8225 28.3935 27.824 28.5615 27.824C28.7979 27.8302 28.9846 27.81 29.1215 27.7633C29.2584 27.7167 29.3268 27.6093 29.3268 27.4413C29.3268 27.3169 29.3315 27.1691 29.3408 26.998C29.3501 26.8269 29.3548 26.6791 29.3548 26.5547C29.361 26.3369 29.4233 26.1985 29.5415 26.1393C29.6597 26.0802 29.809 26.1253 29.9895 26.2747C30.1761 26.424 30.3939 26.6013 30.6428 26.8067C30.8917 27.012 31.1499 27.222 31.4175 27.4367C31.685 27.6513 31.9464 27.8629 32.2015 28.0713C32.4566 28.2798 32.6837 28.4618 32.8828 28.6173C33.0633 28.7667 33.155 28.9082 33.1581 29.042C33.1613 29.1758 33.0757 29.3142 32.9015 29.4573C32.721 29.6067 32.5079 29.7778 32.2621 29.9707C32.0164 30.1636 31.7613 30.3627 31.4968 30.568C31.2324 30.7733 30.9726 30.9771 30.7175 31.1793C30.4624 31.3816 30.2353 31.5605 30.0361 31.716C29.8184 31.8902 29.6395 31.9556 29.4995 31.912C29.3595 31.8685 29.2926 31.7347 29.2988 31.5107V31.2867V31.016C29.2988 30.9227 29.2973 30.8309 29.2941 30.7407C29.291 30.6505 29.2895 30.568 29.2895 30.4933C29.2895 30.3378 29.2428 30.2398 29.1495 30.1993C29.0561 30.1589 28.9286 30.1387 28.7668 30.1387C28.5864 30.1387 28.3499 30.1371 28.0575 30.134C27.765 30.1309 27.4601 30.1293 27.1428 30.1293C26.8255 30.1293 26.5175 30.1278 26.2188 30.1247C25.9201 30.1216 25.6775 30.12 25.4908 30.12C25.4099 30.12 25.3259 30.1122 25.2388 30.0967C25.1517 30.0811 25.0724 30.0516 25.0008 30.008C24.9293 29.9645 24.8717 29.9007 24.8281 29.8167C24.7846 29.7327 24.7628 29.6191 24.7628 29.476C24.7628 29.308 24.7613 29.1462 24.7581 28.9907C24.755 28.8351 24.7566 28.6609 24.7628 28.468Z" fill="white"/>
</g>
<defs>
<clipPath id="clip0_108_964">
<rect width="9.33333" height="9.33333" fill="white" transform="translate(24.3335 24.3333)"/>
</clipPath>
</defs>
</svg>
