<svg width="90" height="36" viewBox="0 0 90 36" fill="none" xmlns="http://www.w3.org/2000/svg">
<path d="M8.80301 0H0L8.94274 36H14.1128C16.9074 36 18.4444 33.9294 18.8636 32.8941L39.6834 0H30.8804L16.3484 24C15.3424 25.3553 14.4388 24.5647 14.1128 24L8.80301 0Z" fill="#0D0D0D" fill-opacity="0.05"/>
<path d="M40.941 36H36.8888L42.7575 4.51765C43.3164 1.01647 45.8781 0.0470588 47.0891 0H51.4207L45.6918 31.3412C45.1329 34.7294 42.2917 35.8588 40.941 36Z" fill="#0D0D0D" fill-opacity="0.05"/>
<path d="M77.9695 6.35294H58.547C58.547 1.60941 61.4347 0.141176 62.8786 0H80.4846C88.5331 0 90.1726 6.4 89.9863 9.6C89.2038 20.3294 81.3696 23.2 77.5503 23.2941H62.8786L61.6211 31.3412C61.0621 34.7294 58.2209 35.8588 56.8702 36H53.2372L56.451 16.8H75.7338C80.6523 16.8 81.6025 12 81.4628 9.6C81.4628 7.00235 79.1339 6.35294 77.9695 6.35294Z" fill="#0D0D0D" fill-opacity="0.05"/>
</svg>
